<svg width="203" height="14" viewBox="0 0 203 14" fill="none" xmlns="http://www.w3.org/2000/svg">
<path fill-rule="evenodd" clip-rule="evenodd" d="M3.69724 12.3683C4.48055 12.636 5.36831 12.7699 6.3605 12.7699C7.34226 12.7699 8.21957 12.636 8.99243 12.3683C9.77575 12.0902 10.4442 11.6989 10.9977 11.1942C11.5513 10.6896 11.969 10.0819 12.251 9.37131C12.5435 8.66069 12.6897 7.86768 12.6897 6.99228C12.6897 6.12717 12.5435 5.34446 12.251 4.64414C11.969 3.93352 11.5513 3.32589 10.9977 2.82124C10.4546 2.3063 9.79141 1.91494 9.0081 1.64717C8.23523 1.3691 7.3527 1.23007 6.3605 1.23007C5.36831 1.23007 4.48055 1.3691 3.69724 1.64717C2.91393 1.91494 2.2455 2.30115 1.69196 2.80579C1.14886 3.31044 0.731092 3.91807 0.438655 4.62869C0.146218 5.33931 0 6.12717 0 6.99228C0 7.86768 0.140996 8.66069 0.422989 9.37131C0.715426 10.0716 1.13842 10.6793 1.69196 11.1942C2.2455 11.6989 2.91393 12.0902 3.69724 12.3683ZM8.49111 10.4836C7.8958 10.7926 7.18559 10.947 6.3605 10.947C5.7443 10.947 5.19075 10.8595 4.69988 10.6844C4.209 10.5093 3.78601 10.257 3.43091 9.92745C3.08625 9.58759 2.81471 9.17563 2.61627 8.69159C2.42827 8.19724 2.33427 7.63081 2.33427 6.99228C2.33427 6.14777 2.49616 5.432 2.81993 4.84497C3.15414 4.25793 3.62413 3.81508 4.22989 3.51641C4.83565 3.20745 5.54586 3.05297 6.3605 3.05297C6.96627 3.05297 7.51458 3.14051 8.00546 3.31559C8.50678 3.49067 8.92977 3.74814 9.27443 4.088C9.62953 4.41756 9.89586 4.82952 10.0734 5.32386C10.2614 5.80791 10.3554 6.36405 10.3554 6.99228C10.3554 7.83678 10.1935 8.55255 9.86975 9.13959C9.54598 9.72662 9.08643 10.1746 8.49111 10.4836Z" fill="white"/>
<path d="M49.2274 12.3065C50.0212 12.6154 51.0395 12.7699 52.2824 12.7699C53.4208 12.7699 54.3764 12.636 55.1493 12.3683C55.9222 12.0902 56.507 11.6989 56.9039 11.1942C57.3112 10.6793 57.5149 10.0716 57.5149 9.37131C57.5149 8.74308 57.4052 8.22814 57.1859 7.82648C56.9666 7.41453 56.648 7.08497 56.2303 6.83779C55.8125 6.59062 55.3007 6.40009 54.695 6.26621C54.0892 6.13232 53.3947 6.01389 52.6113 5.9109C51.8803 5.82851 51.2849 5.74097 50.8254 5.64828C50.3763 5.54529 50.0473 5.39595 49.8384 5.20028C49.6295 5.0046 49.5251 4.71623 49.5251 4.33517C49.5251 4.01591 49.6243 3.74299 49.8228 3.51641C50.0212 3.28984 50.3084 3.11476 50.6844 2.99117C51.0708 2.86759 51.5304 2.80579 52.063 2.80579C52.5957 2.80579 53.0552 2.87274 53.4417 3.00662C53.8281 3.13021 54.131 3.32074 54.3503 3.57821C54.5801 3.83568 54.7106 4.17554 54.742 4.59779H57.0762C57.0345 3.88717 56.8099 3.28469 56.4026 2.79035C56.0057 2.2857 55.4469 1.89949 54.7263 1.63172C54.0056 1.36395 53.1492 1.23007 52.157 1.23007C51.1335 1.23007 50.2457 1.36395 49.4938 1.63172C48.7522 1.8892 48.1778 2.2651 47.7705 2.75945C47.3631 3.25379 47.1595 3.86143 47.1595 4.58235C47.1595 5.13848 47.2639 5.60708 47.4728 5.98814C47.6921 6.3589 48.0055 6.66271 48.4128 6.89959C48.8306 7.13646 49.3371 7.32699 49.9324 7.47117C50.5382 7.61536 51.2223 7.73379 51.9847 7.82648C52.5173 7.88828 52.9769 7.95522 53.3633 8.02731C53.7602 8.0891 54.0892 8.17664 54.3503 8.28993C54.6114 8.40322 54.8046 8.56285 54.93 8.76883C55.0657 8.96451 55.1336 9.22198 55.1336 9.54124C55.1336 9.8811 55.0292 10.1746 54.8203 10.4218C54.6114 10.669 54.3033 10.8595 53.896 10.9934C53.4887 11.117 52.9769 11.1788 52.3607 11.1788C51.7027 11.1788 51.1439 11.0964 50.6844 10.9316C50.2353 10.7668 49.8906 10.5299 49.6504 10.221C49.4102 9.9017 49.2797 9.5155 49.2588 9.06235H46.8462C46.8671 9.78327 47.0707 10.4269 47.4571 10.9934C47.8436 11.5495 48.4337 11.9872 49.2274 12.3065Z" fill="white"/>
<path fill-rule="evenodd" clip-rule="evenodd" d="M57.2789 12.6309L62.3234 1.3691H65.3157L70.3602 12.6309H67.8693L66.8507 10.2055H60.7857L59.7698 12.6309H57.2789ZM64.4697 4.536L66.1371 8.5062H61.4974L63.1538 4.55145L63.7804 3.03751H63.8587L64.4697 4.536Z" fill="white"/>
<path d="M70.8584 1.3691V12.6309H73.0203V7.79558L72.9577 3.39282H73.083L74.258 6.68331L76.5766 12.6309H78.6602L81.0101 6.60607L82.1538 3.37738H82.2948L82.2478 7.76469V12.6309H84.394V1.3691H80.9005L78.6602 7.59476L77.6889 10.221H77.5636L76.5922 7.59476L74.3363 1.3691H70.8584Z" fill="white"/>
<path fill-rule="evenodd" clip-rule="evenodd" d="M85.7181 12.6309V1.3691H91.4833C92.4859 1.3691 93.3058 1.51843 93.9429 1.8171C94.5904 2.10547 95.0708 2.52257 95.3842 3.06841C95.7079 3.60395 95.8698 4.24248 95.8698 4.984C95.8698 5.79761 95.687 6.47218 95.3215 7.00772C94.9664 7.54326 94.4598 7.94492 93.8019 8.21269C93.1439 8.48046 92.3658 8.61434 91.4676 8.61434H88.021V12.6309H85.7181ZM91.2326 6.97682H88.021V3.1611H91.2326C91.9532 3.1611 92.5172 3.31558 92.9246 3.62455C93.3319 3.92322 93.5355 4.40211 93.5355 5.06124C93.5355 5.64827 93.3475 6.11687 92.9716 6.46703C92.5956 6.80689 92.0159 6.97682 91.2326 6.97682Z" fill="white"/>
<path d="M96.5847 1.3691V12.6309H104.857V10.7462H98.8877V1.3691H96.5847Z" fill="white"/>
<path d="M105.447 12.6309V1.3691H114.957V3.192H107.75V6.06538H114.189V7.76469H107.75V10.808H114.988V12.6309H105.447Z" fill="white"/>
<path fill-rule="evenodd" clip-rule="evenodd" d="M115.778 12.6309V1.3691H122.671C123.194 1.3691 123.664 1.41545 124.081 1.50814C124.499 1.60083 124.86 1.73986 125.162 1.92524C125.476 2.10032 125.732 2.31145 125.93 2.55862C126.139 2.80579 126.29 3.08901 126.384 3.40827C126.489 3.72754 126.541 4.0777 126.541 4.45876C126.541 5.17968 126.353 5.78216 125.977 6.2662C125.612 6.73995 125.105 7.06951 124.457 7.25489V7.36303C124.865 7.42483 125.199 7.54841 125.46 7.73379C125.732 7.90887 125.93 8.14574 126.055 8.44441C126.191 8.73278 126.259 9.08809 126.259 9.51034V11.4723C126.259 11.6782 126.264 11.8739 126.275 12.0593C126.296 12.2344 126.337 12.4249 126.4 12.6309H124.066C124.014 12.4661 123.977 12.291 123.956 12.1057C123.946 11.91 123.94 11.6988 123.94 11.4723V9.86565C123.94 9.4846 123.883 9.18078 123.768 8.9542C123.664 8.71733 123.476 8.54225 123.204 8.42896C122.933 8.31568 122.551 8.25903 122.061 8.25903H118.081V12.6309H115.778ZM121.951 6.60607H118.081V3.11476H121.951C122.285 3.11476 122.588 3.14565 122.859 3.20745C123.141 3.26924 123.382 3.36708 123.58 3.50096C123.779 3.63485 123.93 3.80993 124.034 4.0262C124.139 4.24248 124.191 4.49995 124.191 4.79862C124.191 5.33416 124.024 5.77186 123.69 6.11172C123.366 6.44128 122.786 6.60607 121.951 6.60607Z" fill="white"/>
<path d="M34.6632 12.6309V1.3691H37.4831L43.828 9.71117H43.9376L43.8593 6.17352V1.3691H46.1466V12.6309H43.358L37.0131 4.35062H36.9035L36.9818 7.74924V12.6309H34.6632Z" fill="white"/>
<path d="M24.332 1.3691V12.6309H33.8728V10.808H26.635V7.76469H33.0738V6.06538H26.635V3.192H33.8415V1.3691H24.332Z" fill="white"/>
<path fill-rule="evenodd" clip-rule="evenodd" d="M13.4654 12.6309V1.3691H19.2306C20.2332 1.3691 21.0531 1.51843 21.6902 1.8171C22.3377 2.10547 22.8182 2.52257 23.1315 3.06841C23.4552 3.60395 23.6171 4.24248 23.6171 4.984C23.6171 5.79761 23.4344 6.47218 23.0688 7.00772C22.7137 7.54326 22.2072 7.94492 21.5492 8.21269C20.8912 8.48046 20.1131 8.61434 19.2149 8.61434H15.7683V12.6309H13.4654ZM15.7683 6.97682H18.9799C19.7632 6.97682 20.3429 6.80689 20.7189 6.46703C21.0949 6.11687 21.2829 5.64827 21.2829 5.06124C21.2829 4.40211 21.0792 3.92322 20.6719 3.62455C20.2646 3.31558 19.7006 3.1611 18.9799 3.1611H15.7683V6.97682Z" fill="white"/>
<path d="M134.007 0H134.619V14H134.007V0Z" fill="white"/>
<path d="M142.085 12.6232V1.36138H147.176C148.419 1.36138 149.474 1.5931 150.341 2.05655C151.218 2.52 151.887 3.17398 152.346 4.01848C152.806 4.86299 153.036 5.85683 153.036 7C153.036 7.8754 152.9 8.66326 152.628 9.36359C152.367 10.0536 151.981 10.6406 151.469 11.1247C150.957 11.6087 150.341 11.9795 149.62 12.237C148.9 12.4944 148.085 12.6232 147.176 12.6232H142.085ZM143.526 11.4491H146.973C147.725 11.4491 148.383 11.3461 148.947 11.1401C149.521 10.9342 150.002 10.6355 150.388 10.2441C150.785 9.84248 151.077 9.36874 151.265 8.8229C151.464 8.26676 151.563 7.64883 151.563 6.9691C151.563 6.00101 151.375 5.19255 150.999 4.54372C150.623 3.8846 150.09 3.3851 149.401 3.04524C148.712 2.70538 147.902 2.53545 146.973 2.53545H143.526V11.4491Z" fill="#DDB1FF"/>
<path d="M154.523 12.6232V1.36138H161.056C161.547 1.36138 161.985 1.40772 162.372 1.50041C162.758 1.5828 163.098 1.71154 163.39 1.88662C163.693 2.0514 163.938 2.25738 164.126 2.50455C164.325 2.75172 164.471 3.02979 164.565 3.33876C164.67 3.64772 164.722 3.98759 164.722 4.35834C164.722 5.06897 164.544 5.6663 164.189 6.15034C163.834 6.62409 163.322 6.9588 162.654 7.15448V7.24717C163.082 7.30897 163.427 7.4377 163.688 7.63338C163.959 7.81876 164.158 8.06593 164.283 8.3749C164.408 8.67356 164.471 9.03402 164.471 9.45628V11.48C164.471 11.6757 164.476 11.8662 164.487 12.0516C164.508 12.2267 164.555 12.4172 164.628 12.6232H163.155C163.093 12.4481 163.051 12.2679 163.03 12.0825C163.019 11.8971 163.014 11.686 163.014 11.4491V9.688C163.014 9.26575 162.952 8.92074 162.826 8.65297C162.701 8.3749 162.482 8.17407 162.168 8.05048C161.855 7.9166 161.411 7.84966 160.837 7.84966H155.792V6.73738H160.68C161.62 6.73738 162.283 6.53655 162.67 6.1349C163.056 5.73324 163.249 5.21315 163.249 4.57462C163.249 4.20386 163.187 3.88975 163.061 3.63228C162.946 3.3748 162.774 3.16368 162.544 2.9989C162.314 2.82382 162.043 2.70023 161.73 2.62814C161.416 2.55605 161.066 2.52 160.68 2.52H155.964V12.6232H154.523Z" fill="#DDB1FF"/>
<path d="M171.409 12.7622C170.364 12.7622 169.445 12.6026 168.651 12.2833C167.868 11.964 167.257 11.4543 166.819 10.7539C166.39 10.0433 166.176 9.11641 166.176 7.97324V1.36138H167.617V7.9269C167.617 8.69931 167.743 9.35329 167.993 9.88883C168.244 10.4244 168.646 10.8312 169.2 11.1092C169.764 11.3873 170.5 11.5263 171.409 11.5263C172.296 11.5263 173.017 11.3976 173.571 11.1401C174.135 10.8724 174.547 10.4707 174.808 9.93517C175.08 9.39963 175.216 8.73021 175.216 7.9269V1.36138H176.657V7.97324C176.657 9.06492 176.448 9.96607 176.03 10.6767C175.623 11.377 175.028 11.9023 174.244 12.2524C173.471 12.5923 172.526 12.7622 171.409 12.7622Z" fill="#DDB1FF"/>
<path d="M178.573 12.6232V1.36138H180.814L183.539 7.81876L184.934 11.1401H185.043L186.438 7.81876L189.164 1.36138H191.42V12.6232H190.057V6.93821L190.088 2.59724H189.963L188.584 5.94952L185.67 12.6232H184.291L181.44 6.0731L180.015 2.61269H179.889L179.952 6.9691V12.6232H178.573Z" fill="#DDB1FF"/>
<path d="M198.049 12.7622C196.848 12.7622 195.867 12.6077 195.104 12.2988C194.352 11.9795 193.793 11.5469 193.428 11.0011C193.062 10.4553 192.859 9.82189 192.817 9.10097H194.352C194.384 9.6777 194.545 10.1617 194.838 10.5531C195.13 10.9342 195.548 11.2225 196.091 11.4182C196.645 11.6036 197.313 11.6963 198.096 11.6963C198.859 11.6963 199.491 11.6139 199.992 11.4491C200.493 11.274 200.869 11.032 201.12 10.723C201.371 10.4141 201.496 10.0382 201.496 9.59531C201.496 9.18336 201.412 8.85379 201.245 8.60662C201.078 8.34915 200.833 8.14832 200.509 8.00414C200.185 7.85995 199.794 7.74667 199.334 7.66428C198.885 7.58188 198.378 7.50464 197.814 7.43255C197.125 7.33986 196.493 7.23687 195.919 7.12359C195.355 7 194.864 6.83007 194.446 6.61379C194.039 6.39752 193.72 6.10915 193.491 5.74869C193.261 5.37793 193.146 4.91448 193.146 4.35834C193.146 3.68892 193.339 3.12248 193.726 2.65903C194.112 2.19559 194.66 1.84542 195.371 1.60855C196.081 1.36138 196.911 1.23779 197.861 1.23779C198.843 1.23779 199.674 1.37168 200.352 1.63945C201.042 1.89692 201.569 2.27283 201.935 2.76717C202.311 3.25122 202.52 3.8331 202.561 4.51283H201.073C201.052 4.00818 200.901 3.59108 200.619 3.26152C200.347 2.93195 199.971 2.68993 199.491 2.53545C199.021 2.37067 198.457 2.28828 197.799 2.28828C197.13 2.28828 196.556 2.36552 196.076 2.52C195.606 2.67448 195.245 2.89591 194.995 3.18428C194.754 3.47264 194.634 3.81251 194.634 4.20386C194.634 4.70851 194.77 5.08441 195.042 5.33159C195.313 5.57876 195.71 5.75899 196.232 5.87228C196.765 5.98556 197.418 6.0937 198.19 6.19669C198.89 6.27908 199.533 6.38207 200.117 6.50565C200.713 6.62924 201.224 6.80947 201.653 7.04634C202.081 7.27292 202.41 7.58188 202.64 7.97324C202.88 8.3646 203 8.87439 203 9.50262C203 10.172 202.812 10.7539 202.436 11.2483C202.06 11.7323 201.506 12.1082 200.775 12.376C200.044 12.6335 199.136 12.7622 198.049 12.7622Z" fill="#DDB1FF"/>
</svg>
